<?xml version="1.0" encoding="UTF-8" standalone="no"?>
<svg
   xmlns:dc="http://purl.org/dc/elements/1.1/"
   xmlns:cc="http://creativecommons.org/ns#"
   xmlns:rdf="http://www.w3.org/1999/02/22-rdf-syntax-ns#"
   xmlns:svg="http://www.w3.org/2000/svg"
   xmlns="http://www.w3.org/2000/svg"
   xml:space="preserve"
   enable-background="new 0 0 612 792"
   viewBox="0 0 192.7 161.099"
   height="161.099"
   width="192.7"
   y="0px"
   x="0px"
   id="Layer_1"
   version="1.1"><metadata
     id="metadata47"><rdf:RDF><cc:Work
         rdf:about=""><dc:format>image/svg+xml</dc:format><dc:type
           rdf:resource="http://purl.org/dc/dcmitype/StillImage" /><dc:title></dc:title></cc:Work></rdf:RDF></metadata><defs
     id="defs45" /><path
     style="fill:#ffffff"
     id="path2"
     d="m 101.1,92.999 v 0 c 10.7,-1.1 20.601,-5.8 28.2,-13.399 v 0 C 137.7,71.2 143,59.499 143,46.7 143,33.901 137.8,22.2 129.4,13.8 V 13.7 C 121.7,6 111.9,1.4 101.2,0.3 v 0 c -0.7,-0.1 -1.4,-0.1 -2.101,-0.2 -0.1,0 -0.199,0 -0.3,0 C 97.999,0.1 97.199,0 96.4,0 V 0 0 C 82.1,0 69.2,6.5 60.7,16.7 60.6,16.8 60.5,16.9 60.4,17 l -0.1,0.1 c -1.4,1.7 -2.7,3.5 -3.8,5.4 0,0 -0.1,0.1 -0.1,0.2 C 52.9,28.4 50.7,35 50,42 c 0,0.301 0,0.601 -0.1,0.9 -0.1,1.3 -0.2,2.5 -0.2,3.8 v 0 0 c 0,25.7 20.9,46.601 46.6,46.601 v 0 0 c 0.8,0 1.601,0 2.4,-0.101 0.1,0 0.2,0 0.3,0 0.7,-0.001 1.4,-0.101 2.1,-0.201 z m 0.8,-9.1 c -0.5,0.1 -1,0.1 -1.5,0.2 -0.2,0 -0.301,0 -0.5,0 -0.4,0 -0.9,0.1 -1.301,0.1 -0.199,0 -0.3,0 -0.5,0 -0.6,0 -1.199,0 -1.8,0 -20.8,0 -37.6,-16.899 -37.6,-37.6 0,-1.8 0.1,-3.601 0.4,-5.3 0,-0.101 0,-0.301 0.1,-0.4 0,-0.3 0.1,-0.5 0.1,-0.8 0.1,-0.4 0.1,-0.7 0.2,-1.101 0.5,-2.699 1.4,-5.199 2.5,-7.699 5.9,-13.2 19.1,-22.4 34.4,-22.4 0.6,0 1.199,0 1.8,0 0.2,0 0.3,0 0.5,0 0.5,0 0.899,0.1 1.399,0.1 0.2,0 0.301,0 0.5,0 0.5,0.1 1,0.1 1.5,0.2 0.101,0 0.2,0 0.2,0 6.5,1 12.5,3.7 17.4,7.6 l -29.598,29.6 29.6,29.6 c -5,3.9 -11.3,6.9 -17.8,7.9 -0.2,0.2 0.1,0 0,0 z m 24,-14 -23.2,-23.2 23.2,-23.2 c 5,6.4 8.1,14.5 8.1,23.2 0,8.7 -3,16.8 -8.1,23.2 z" /><g
     transform="translate(-212.5,-369.601)"
     id="g22"><path
       style="fill:#ffffff"
       id="path4"
       d="m 230.9,476.5 h 5.1 c 0.7,0 1.4,0.1 2,0.2 0.7,0.1 1.2,0.399 1.8,0.7 0.5,0.3 0.9,0.699 1.3,1.3 0.4,0.6 0.5,1.2 0.5,1.899 0,1 -0.3,1.801 -0.8,2.4 -0.5,0.599 -1.2,1.1 -2.1,1.3 v 0 c 0.5,0 1,0.2 1.5,0.4 0.5,0.2 0.9,0.5 1.2,0.899 0.3,0.4 0.6,0.801 0.8,1.301 0.2,0.5 0.3,1 0.3,1.5 0,0.899 -0.2,1.699 -0.6,2.3 -0.4,0.6 -0.9,1.1 -1.5,1.399 -0.6,0.4 -1.3,0.601 -2.1,0.7 -0.8,0.101 -1.5,0.2 -2.3,0.2 h -5 v -16.5 h -0.1 z m 1.9,7 h 2.7 c 0.5,0 0.9,0 1.4,-0.1 0.4,-0.101 0.8,-0.2 1.2,-0.4 0.4,-0.2 0.6,-0.5 0.9,-0.8 0.3,-0.3 0.3,-0.8 0.3,-1.4 0,-0.5 -0.1,-0.899 -0.3,-1.3 -0.2,-0.3 -0.5,-0.6 -0.8,-0.8 -0.3,-0.2 -0.7,-0.3 -1.2,-0.4 -0.4,-0.1 -0.9,-0.1 -1.3,-0.1 h -2.9 z m 0,7.7 h 3.3 c 0.5,0 1,-0.101 1.4,-0.2 0.5,-0.1 0.9,-0.3 1.3,-0.5 0.4,-0.2 0.7,-0.5 0.9,-0.9 0.2,-0.399 0.4,-0.8 0.4,-1.399 0,-0.601 -0.1,-1.101 -0.3,-1.5 -0.2,-0.4 -0.5,-0.7 -0.9,-0.9 -0.4,-0.2 -0.8,-0.399 -1.3,-0.5 -0.5,-0.1 -1,-0.1 -1.5,-0.1 h -3.4 v 6 h 0.1 z" /><path
       style="fill:#ffffff"
       id="path6"
       d="m 249,476.5 h 4.2 c 0.8,0 1.6,0 2.4,0.1 0.8,0.101 1.5,0.301 2.1,0.601 0.6,0.3 1.1,0.8 1.5,1.399 0.4,0.601 0.6,1.4 0.6,2.5 0,1.2 -0.4,2.2 -1.1,3 -0.7,0.801 -1.8,1.2 -3.1,1.4 l 4.7,7.7 H 258 l -4.5,-7.5 H 251 v 7.5 h -2 z m 2,7.3 h 1.8 c 0.5,0 1.1,0 1.7,0 0.6,0 1.1,-0.1 1.6,-0.3 0.5,-0.2 0.9,-0.4 1.2,-0.8 0.3,-0.4 0.5,-0.9 0.5,-1.601 0,-0.6 -0.1,-1.1 -0.4,-1.399 -0.2,-0.4 -0.5,-0.601 -0.9,-0.8 -0.4,-0.2 -0.8,-0.301 -1.3,-0.4 -0.5,-0.099 -1,-0.1 -1.4,-0.1 H 251 Z" /><path
       style="fill:#ffffff"
       id="path8"
       d="m 274.2,493.5 c -1.3,0 -2.4,-0.2 -3.5,-0.7 -1.1,-0.399 -2,-1 -2.7,-1.8 -0.8,-0.8 -1.4,-1.7 -1.8,-2.8 -0.4,-1.101 -0.6,-2.2 -0.6,-3.5 0,-1.3 0.2,-2.4 0.6,-3.5 0.4,-1.101 1,-2 1.8,-2.8 0.8,-0.801 1.7,-1.4 2.7,-1.801 1.1,-0.399 2.2,-0.699 3.5,-0.699 1.3,0 2.4,0.199 3.5,0.699 1.1,0.4 2,1 2.7,1.801 0.8,0.8 1.4,1.699 1.8,2.8 0.4,1.1 0.6,2.2 0.6,3.5 0,1.3 -0.2,2.399 -0.6,3.5 -0.4,1.1 -1,2 -1.8,2.8 -0.8,0.8 -1.7,1.4 -2.7,1.8 -1.1,0.5 -2.3,0.7 -3.5,0.7 z m 0,-1.8 c 1,0 1.9,-0.2 2.7,-0.5 0.8,-0.4 1.5,-0.9 2.1,-1.5 0.6,-0.601 1,-1.4 1.4,-2.2 0.3,-0.8 0.5,-1.7 0.5,-2.7 0,-1 -0.2,-1.899 -0.5,-2.7 -0.3,-0.8 -0.8,-1.6 -1.4,-2.199 -0.6,-0.601 -1.3,-1.101 -2.1,-1.5 -0.8,-0.4 -1.7,-0.5 -2.7,-0.5 -1,0 -1.9,0.199 -2.7,0.5 -0.8,0.399 -1.5,0.899 -2.1,1.5 -0.6,0.6 -1,1.399 -1.3,2.199 -0.3,0.801 -0.5,1.7 -0.5,2.7 0,1 0.2,1.9 0.5,2.7 0.3,0.8 0.8,1.6 1.3,2.2 0.6,0.6 1.3,1.1 2.1,1.5 0.8,0.3 1.7,0.5 2.7,0.5 z" /><path
       style="fill:#ffffff"
       id="path10"
       d="m 302,487 c 0,0.899 -0.2,1.5 -0.4,2.3 -0.2,0.8 -0.6,1.5 -1.1,2.101 -0.5,0.6 -1.1,1.1 -1.9,1.5 -0.8,0.399 -1.8,0.6 -2.9,0.6 -1.1,0 -2.1,-0.2 -2.9,-0.6 -0.8,-0.4 -1.4,-0.9 -1.9,-1.5 -0.5,-0.601 -0.9,-1.301 -1.1,-2.101 -0.2,-0.8 -0.3,-1.7 -0.3,-2.6 v -10.3 h 2 v 10 c 0,0.699 0.1,1.3 0.2,1.899 0.1,0.601 0.4,1.2 0.7,1.7 0.3,0.5 0.8,0.9 1.3,1.2 0.5,0.3 1.2,0.399 2.1,0.399 0.8,0 1.5,-0.1 2.1,-0.399 0.5,-0.3 1,-0.7 1.3,-1.2 0.3,-0.5 0.6,-1 0.7,-1.7 0.1,-0.6 0.2,-1.3 0.2,-1.899 v -10 h 2 v 10.3 z" /><path
       style="fill:#ffffff"
       id="path12"
       d="m 307.5,476.5 h 2.2 l 3.8,13.8 v 0 l 4.1,-13.8 h 2.2 l 4.101,13.8 v 0 l 3.8,-13.8 h 2.1 l -4.899,16.6 H 322.8 L 318.7,479 v 0 l -4.101,14.1 H 312.4 Z" /><path
       style="fill:#ffffff"
       id="path14"
       d="m 335.4,476.5 h 10.4 v 1.8 h -8.5 v 5.2 h 7.9 v 1.8 h -7.9 v 5.9 h 8.9 v 1.8 h -10.9 v -16.5 z" /><path
       style="fill:#ffffff"
       id="path16"
       d="m 352.5,476.5 h 4.2 c 0.8,0 1.6,0 2.399,0.1 0.801,0.101 1.5,0.301 2.101,0.601 0.6,0.3 1.1,0.8 1.5,1.399 0.399,0.601 0.6,1.4 0.6,2.5 0,1.2 -0.399,2.2 -1.1,3 -0.7,0.801 -1.8,1.2 -3.101,1.4 l 4.7,7.7 H 361.4 l -4.5,-7.5 h -2.5 v 7.5 h -2 v -16.7 z m 2,7.3 h 1.8 c 0.5,0 1.101,0 1.7,0 0.599,0 1.1,-0.1 1.6,-0.3 0.5,-0.2 0.9,-0.4 1.2,-0.8 0.3,-0.4 0.5,-0.9 0.5,-1.601 0,-0.6 -0.1,-1.1 -0.399,-1.399 -0.2,-0.4 -0.5,-0.601 -0.9,-0.8 -0.4,-0.2 -0.8,-0.301 -1.3,-0.4 -0.5,-0.099 -1,-0.1 -1.4,-0.1 h -2.8 v 5.4 z" /><path
       style="fill:#ffffff"
       id="path18"
       d="m 370.2,476.5 h 2 v 16.6 h -2 z" /><path
       style="fill:#ffffff"
       id="path20"
       d="m 386.9,488.8 c 0,0.601 -0.101,1.101 -0.2,1.7 -0.2,0.6 -0.4,1.1 -0.8,1.5 -0.4,0.5 -0.9,0.8 -1.5,1.1 -0.601,0.301 -1.301,0.4 -2.2,0.4 -1.2,0 -2.2,-0.3 -2.9,-0.9 -0.8,-0.6 -1.3,-1.5 -1.5,-2.699 l 2,-0.4 c 0.101,0.7 0.4,1.2 0.8,1.6 0.4,0.4 1,0.601 1.7,0.601 0.601,0 1,-0.101 1.4,-0.3 0.399,-0.2 0.6,-0.5 0.8,-0.801 0.2,-0.3 0.3,-0.699 0.4,-1.1 0.1,-0.4 0.1,-0.9 0.1,-1.3 V 476.6 h 2 v 12.2 z" /></g><path
     style="fill:#ffffff"
     id="path24"
     d="m 22.4,132.699 -12.4,13.4 13.5,14.1 v 0.3 H 17 l -11.7,-12.4 v 12.4 H 0 v -28 h 5.3 v 11.9 l 10.6,-11.8 h 6.6 v 0.1 z" /><path
     style="fill:#ffffff"
     id="path26"
     d="m 56.3,160.499 h -4.5 l -3.5,-8.8 -3,-8.8 -2.9,8.9 -3.4,8.699 h -4.5 l -10.3,-28 h 5.9 l 6.6,20.2 6.8,-20.2 h 3.4 l 7,20.2 6.4,-20.2 h 5.9 z" /><path
     style="fill:#ffffff"
     id="path28"
     d="M 86.5,155.199 H 71.9 l -2.4,5.3 h -5.7 l 12.6,-28 h 5.8 l 12.6,28 H 89 Z m -7.3,-16.8 -5.2,11.9 h 10.4 z" /><path
     style="fill:#ffffff"
     id="path30"
     d="m 121.4,160.499 h -6.3 l -8.2,-9.4 h -5.1 v 9.399 h -5.3 v -28 c 4.4,0 8.9,0 13.3,0 6.601,0 10.101,4.4 10.101,9.301 0,3.8 -1.801,7.699 -7.101,8.8 l 8.5,9.6 v 0.3 z m -19.5,-23.1 v 9 h 8 c 3.399,0 4.8,-2.2 4.8,-4.5 0,-2.2 -1.5,-4.5 -4.8,-4.5 z" /><path
     style="fill:#ffffff"
     id="path32"
     d="m 130.4,137.299 h -8.9 v -4.8 c 8.1,0 14.9,0 23,0 v 4.801 h -8.9 v 23.199 h -5.3 v -23.2 z" /><path
     style="fill:#ffffff"
     id="path34"
     d="m 166.8,148.599 c 0,7.2 -4.6,12.5 -12.3,12.5 -7.2,0 -12.3,-4.3 -12.3,-12.2 h 5.2 c 0,4.8 2.3,7.2 7.1,7.2 4.8,0 7,-3.3 7,-7.601 v -11.099 h -8.4 v -4.9 c 4.601,0 9.101,0 13.7,0 z" /><path
     style="fill:#ffffff"
     id="path36"
     d="m 192.7,160.499 h -21 c 0,-9.3 0,-18.699 0,-28 h 21 V 137.6 H 177 v 6.399 h 15.2 v 4.9 H 177 v 6.3 h 15.7 z" /><rect
     style="fill:#ffffff"
     id="rect38"
     height="1.699"
     width="11.7"
     y="114.299"
     x="0.19999695" /><rect
     style="fill:#ffffff"
     id="rect40"
     height="1.699"
     width="11.699"
     y="114.299"
     x="180.89999" /></svg>